<svg width="60" height="60" viewBox="0 0 60 60" fill="none" xmlns="http://www.w3.org/2000/svg">
<circle cx="30" cy="30" r="30" fill="#162E2F"/>
<mask id="mask0_4262_33076" style="mask-type:alpha" maskUnits="userSpaceOnUse" x="0" y="0" width="60" height="60">
<circle cx="30" cy="30" r="30" fill="#162E2F"/>
</mask>
<g mask="url(#mask0_4262_33076)">
<path d="M-4 9H35V16.25L39.5 22.5L40.5 36.5L35 44.875V52H-4V9Z" fill="url(#paint0_linear_4262_33076)"/>
<rect x="-4" y="16" width="30" height="29" fill="url(#paint1_linear_4262_33076)"/>
</g>
<path d="M44.6681 22.2245C44.2191 17.527 40.1779 15.9569 35.0591 15.4748V9H31.1014V15.3495H27.9438V9H24.0197V15.515H16.0016V19.7512C16.0016 19.7512 18.9218 19.6982 18.8769 19.7512C19.4032 19.6936 19.9312 19.8428 20.3499 20.1674C20.7686 20.492 21.0454 20.9667 21.122 21.4916V39.33C21.0973 39.7033 20.9256 40.0516 20.6447 40.2981C20.3639 40.5446 19.9968 40.6692 19.6242 40.6445C19.6771 40.6895 16.7489 40.6445 16.7489 40.6445L16 45.3805H23.946V52H27.8941V45.477H31.0549V51.9695H35.0174V45.4255C41.6982 45.0189 46.3567 43.3685 46.9404 37.101C47.4119 32.058 45.0449 29.8049 41.2636 28.905C43.568 27.764 44.9904 25.662 44.6681 22.2245ZM39.1195 36.32C39.1195 41.244 30.7021 40.6815 28.0208 40.6815V31.9455C30.7085 31.952 39.1195 31.179 39.1195 36.32ZM37.2914 24.0115C37.2914 28.5113 30.2659 27.9665 28.0336 27.9665V20.026C30.2659 20.026 37.2914 19.3205 37.2914 24.0115Z" fill="#C4FDF2"/>
<defs>
<linearGradient id="paint0_linear_4262_33076" x1="-39.5" y1="28.2759" x2="37.5" y2="28.2759" gradientUnits="userSpaceOnUse">
<stop stop-color="#162E2F"/>
<stop offset="1" stop-color="#6FB6AD"/>
</linearGradient>
<linearGradient id="paint1_linear_4262_33076" x1="-8" y1="29" x2="29" y2="29" gradientUnits="userSpaceOnUse">
<stop stop-color="#162E2F"/>
<stop offset="1" stop-color="#6FB6AD"/>
</linearGradient>
</defs>
</svg>
