<svg width="60" height="60" viewBox="0 0 60 60" fill="none" xmlns="http://www.w3.org/2000/svg">
<g clip-path="url(#clip0_4259_33070)">
<path d="M59.9251 29.9626C59.9251 46.5105 46.5105 59.9251 29.9626 59.9251C13.4148 59.9251 0 46.5105 0 29.9626C0 13.4148 13.4148 0 29.9626 0C46.5105 0 59.9251 13.4148 59.9251 29.9626Z" fill="#7667EB"/>
<path d="M58.3191 29.9621C58.3189 14.3017 45.6226 1.60645 29.9621 1.60645C14.3019 1.60667 1.60667 14.3019 1.60645 29.9621C1.60645 45.6226 14.3017 58.3189 29.9621 58.3191V59.9255L29.1895 59.9157C12.9989 59.5057 0 46.2515 0 29.9621C0.000228063 13.4146 13.4146 0.000228076 29.9621 0C46.5099 0 59.9252 13.4145 59.9255 29.9621L59.9157 30.7361C59.5055 46.9265 46.2514 59.9255 29.9621 59.9255V58.3191C45.6227 58.3191 58.3191 45.6227 58.3191 29.9621Z" fill="white"/>
<path d="M17.0299 15.1018H17.0298C16.5862 15.1018 16.2266 15.4614 16.2266 15.9051V20.2428C16.2266 20.6865 16.5862 21.0461 17.0299 21.0461C17.4735 21.0461 17.8331 20.6865 17.8331 20.2428V15.9051C17.8331 15.4614 17.4735 15.1018 17.0299 15.1018Z" fill="white"/>
<path d="M17.0299 38.8792H17.0298C16.5862 38.8792 16.2266 39.2388 16.2266 39.6824V44.0202C16.2266 44.4638 16.5862 44.8235 17.0299 44.8235C17.4735 44.8235 17.8331 44.4638 17.8331 44.0202V39.6824C17.8331 39.2388 17.4735 38.8792 17.0299 38.8792Z" fill="white"/>
<path d="M19.7603 15.1018H19.7603C19.3167 15.1018 18.957 15.4614 18.957 15.9051V20.2428C18.957 20.6865 19.3167 21.0461 19.7603 21.0461C20.204 21.0461 20.5636 20.6865 20.5636 20.2428V15.9051C20.5636 15.4614 20.204 15.1018 19.7603 15.1018Z" fill="white"/>
<path d="M19.7603 38.8792H19.7603C19.3167 38.8792 18.957 39.2388 18.957 39.6824V44.0202C18.957 44.4638 19.3167 44.8235 19.7603 44.8235C20.204 44.8235 20.5636 44.4638 20.5636 44.0202V39.6824C20.5636 39.2388 20.204 38.8792 19.7603 38.8792Z" fill="white"/>
<path d="M22.4927 15.1018H22.4927C22.0491 15.1018 21.6895 15.4614 21.6895 15.9051V44.0201C21.6895 44.4638 22.0491 44.8234 22.4927 44.8234C22.9364 44.8234 23.296 44.4638 23.296 44.0201V15.9051C23.296 15.4614 22.9364 15.1018 22.4927 15.1018Z" fill="white"/>
<path d="M22.4927 8.03296H22.4927C22.0491 8.03296 21.6895 8.3926 21.6895 8.83625V13.174C21.6895 13.6176 22.0491 13.9773 22.4927 13.9773C22.9364 13.9773 23.296 13.6176 23.296 13.174V8.83625C23.296 8.3926 22.9364 8.03296 22.4927 8.03296Z" fill="white"/>
<path d="M22.4927 45.948H22.4927C22.0491 45.948 21.6895 46.3076 21.6895 46.7513V51.089C21.6895 51.5327 22.0491 51.8923 22.4927 51.8923C22.9364 51.8923 23.296 51.5327 23.296 51.089V46.7513C23.296 46.3076 22.9364 45.948 22.4927 45.948Z" fill="white"/>
<path d="M25.2232 15.1018H25.2232C24.7796 15.1018 24.4199 15.4614 24.4199 15.9051V44.0201C24.4199 44.4638 24.7796 44.8234 25.2232 44.8234C25.6669 44.8234 26.0265 44.4638 26.0265 44.0201V15.9051C26.0265 15.4614 25.6669 15.1018 25.2232 15.1018Z" fill="white"/>
<path d="M25.2232 8.03296H25.2232C24.7796 8.03296 24.4199 8.3926 24.4199 8.83625V13.174C24.4199 13.6176 24.7796 13.9773 25.2232 13.9773C25.6669 13.9773 26.0265 13.6176 26.0265 13.174V8.83625C26.0265 8.3926 25.6669 8.03296 25.2232 8.03296Z" fill="white"/>
<path d="M25.2232 45.948H25.2232C24.7796 45.948 24.4199 46.3076 24.4199 46.7513V51.089C24.4199 51.5327 24.7796 51.8923 25.2232 51.8923C25.6669 51.8923 26.0265 51.5327 26.0265 51.089V46.7513C26.0265 46.3076 25.6669 45.948 25.2232 45.948Z" fill="white"/>
<path d="M27.9537 15.1018H27.9537C27.51 15.1018 27.1504 15.4614 27.1504 15.9051V20.2428C27.1504 20.6865 27.51 21.0461 27.9537 21.0461C28.3973 21.0461 28.757 20.6865 28.757 20.2428V15.9051C28.757 15.4614 28.3973 15.1018 27.9537 15.1018Z" fill="white"/>
<path d="M27.9537 38.8792H27.9537C27.51 38.8792 27.1504 39.2388 27.1504 39.6824V44.0202C27.1504 44.4638 27.51 44.8235 27.9537 44.8235C28.3973 44.8235 28.757 44.4638 28.757 44.0202V39.6824C28.757 39.2388 28.3973 38.8792 27.9537 38.8792Z" fill="white"/>
<path d="M27.9537 26.9905H27.9537C27.51 26.9905 27.1504 27.3501 27.1504 27.7938V32.1315C27.1504 32.5752 27.51 32.9348 27.9537 32.9348C28.3973 32.9348 28.757 32.5752 28.757 32.1315V27.7938C28.757 27.3501 28.3973 26.9905 27.9537 26.9905Z" fill="white"/>
<path d="M30.6861 15.1018H30.6861C30.2425 15.1018 29.8828 15.4614 29.8828 15.9051V20.2428C29.8828 20.6865 30.2425 21.0461 30.6861 21.0461C31.1297 21.0461 31.4894 20.6865 31.4894 20.2428V15.9051C31.4894 15.4614 31.1297 15.1018 30.6861 15.1018Z" fill="white"/>
<path d="M30.6861 38.8792H30.6861C30.2425 38.8792 29.8828 39.2388 29.8828 39.6824V44.0202C29.8828 44.4638 30.2425 44.8235 30.6861 44.8235C31.1297 44.8235 31.4894 44.4638 31.4894 44.0202V39.6824C31.4894 39.2388 31.1297 38.8792 30.6861 38.8792Z" fill="white"/>
<path d="M30.6861 26.9905H30.6861C30.2425 26.9905 29.8828 27.3501 29.8828 27.7938V32.1315C29.8828 32.5752 30.2425 32.9348 30.6861 32.9348C31.1297 32.9348 31.4894 32.5752 31.4894 32.1315V27.7938C31.4894 27.3501 31.1297 26.9905 30.6861 26.9905Z" fill="white"/>
<path d="M33.4166 8.03296H33.4166C32.9729 8.03296 32.6133 8.3926 32.6133 8.83625V13.174C32.6133 13.6176 32.9729 13.9773 33.4166 13.9773C33.8602 13.9773 34.2199 13.6176 34.2199 13.174V8.83625C34.2199 8.3926 33.8602 8.03296 33.4166 8.03296Z" fill="white"/>
<path d="M33.4166 45.948H33.4166C32.9729 45.948 32.6133 46.3076 32.6133 46.7513V51.089C32.6133 51.5327 32.9729 51.8923 33.4166 51.8923C33.8602 51.8923 34.2199 51.5327 34.2199 51.089V46.7513C34.2199 46.3076 33.8602 45.948 33.4166 45.948Z" fill="white"/>
<path d="M33.4166 15.1018H33.4166C32.9729 15.1018 32.6133 15.4614 32.6133 15.9051V20.2428C32.6133 20.6865 32.9729 21.0461 33.4166 21.0461C33.8602 21.0461 34.2199 20.6865 34.2199 20.2428V15.9051C34.2199 15.4614 33.8602 15.1018 33.4166 15.1018Z" fill="white"/>
<path d="M33.4166 38.8792H33.4166C32.9729 38.8792 32.6133 39.2388 32.6133 39.6824V44.0202C32.6133 44.4638 32.9729 44.8235 33.4166 44.8235C33.8602 44.8235 34.2199 44.4638 34.2199 44.0202V39.6824C34.2199 39.2388 33.8602 38.8792 33.4166 38.8792Z" fill="white"/>
<path d="M33.4166 26.9905H33.4166C32.9729 26.9905 32.6133 27.3501 32.6133 27.7938V32.1315C32.6133 32.5752 32.9729 32.9348 33.4166 32.9348C33.8602 32.9348 34.2199 32.5752 34.2199 32.1315V27.7938C34.2199 27.3501 33.8602 26.9905 33.4166 26.9905Z" fill="white"/>
<path d="M36.147 15.1018H36.147C35.7034 15.1018 35.3438 15.4614 35.3438 15.9051V21.3674C35.3438 21.8111 35.7034 22.1707 36.147 22.1707C36.5907 22.1707 36.9503 21.8111 36.9503 21.3674V15.9051C36.9503 15.4614 36.5907 15.1018 36.147 15.1018Z" fill="white"/>
<path d="M36.147 37.7544H36.147C35.7034 37.7544 35.3438 38.114 35.3438 38.5577V44.02C35.3438 44.4637 35.7034 44.8233 36.147 44.8233C36.5907 44.8233 36.9503 44.4637 36.9503 44.02V38.5577C36.9503 38.114 36.5907 37.7544 36.147 37.7544Z" fill="white"/>
<path d="M36.147 8.03296H36.147C35.7034 8.03296 35.3438 8.3926 35.3438 8.83625V13.174C35.3438 13.6176 35.7034 13.9773 36.147 13.9773C36.5907 13.9773 36.9503 13.6176 36.9503 13.174V8.83625C36.9503 8.3926 36.5907 8.03296 36.147 8.03296Z" fill="white"/>
<path d="M36.147 45.948H36.147C35.7034 45.948 35.3438 46.3076 35.3438 46.7513V51.089C35.3438 51.5327 35.7034 51.8923 36.147 51.8923C36.5907 51.8923 36.9503 51.5327 36.9503 51.089V46.7513C36.9503 46.3076 36.5907 45.948 36.147 45.948Z" fill="white"/>
<path d="M36.147 25.866H36.147C35.7034 25.866 35.3438 26.2256 35.3438 26.6693V33.2562C35.3438 33.6998 35.7034 34.0595 36.147 34.0595C36.5907 34.0595 36.9503 33.6998 36.9503 33.2562V26.6693C36.9503 26.2256 36.5907 25.866 36.147 25.866Z" fill="white"/>
<path d="M38.8795 15.1018H38.8795C38.4358 15.1018 38.0762 15.4614 38.0762 15.9051V44.0201C38.0762 44.4638 38.4358 44.8234 38.8795 44.8234C39.3231 44.8234 39.6827 44.4638 39.6827 44.0201V15.9051C39.6827 15.4614 39.3231 15.1018 38.8795 15.1018Z" fill="white"/>
<path d="M42.4132 18.8773C42.4132 18.4336 42.0536 18.074 41.6099 18.074C41.1663 18.074 40.8066 18.4336 40.8066 18.8773V41.0479C40.8066 41.4916 41.1663 41.8512 41.6099 41.8512C42.0536 41.8512 42.4132 41.4916 42.4132 41.0479V18.8773Z" fill="white"/>
<path d="M45.1456 21.8494C45.1456 21.4058 44.786 21.0461 44.3423 21.0461C43.8987 21.0461 43.5391 21.4058 43.5391 21.8494V26.1872C43.5391 26.6308 43.8987 26.9905 44.3423 26.9905C44.786 26.9905 45.1456 26.6308 45.1456 26.1872V21.8494Z" fill="white"/>
<path d="M45.1456 33.7381C45.1456 33.2945 44.786 32.9348 44.3423 32.9348C43.8987 32.9348 43.5391 33.2945 43.5391 33.7381V38.0759C43.5391 38.5195 43.8987 38.8791 44.3423 38.8791C44.786 38.8791 45.1456 38.5195 45.1456 38.0759V33.7381Z" fill="white"/>
</g>
<defs>
<clipPath id="clip0_4259_33070">
<rect width="60" height="60" fill="white"/>
</clipPath>
</defs>
</svg>
