<svg width="20" height="20" viewBox="0 0 20 20" fill="none" xmlns="http://www.w3.org/2000/svg">
    <rect x="0.776367" y="0.776367" width="18.6335" height="18.6335" rx="9.31677" fill="#2A25FF" />
    <path
        d="M0.25293 10.0001C0.25293 15.3832 4.61661 19.7468 9.99961 19.7468C15.3827 19.7468 19.7466 15.383 19.7466 10.0001C19.7466 4.61711 15.3827 0.253418 9.99961 0.253418C4.61661 0.253418 0.25293 4.6171 0.25293 10.0001Z"
        fill="#0C0C4F" stroke="url(#paint0_linear_153_36118)" stroke-width="0.5" />
    <path fill-rule="evenodd" clip-rule="evenodd"
        d="M5.58904 7.6444L5.83589 6.88177C5.88607 6.72666 6.00848 6.60596 6.16417 6.55836L6.93054 6.32269C7.03661 6.29029 7.03747 6.14063 6.93226 6.10652L6.16933 5.85966C6.01451 5.80949 5.8938 5.68706 5.84593 5.53138L5.61054 4.76502C5.57814 4.65922 5.42848 4.65807 5.39436 4.76358L5.14751 5.52622C5.09733 5.68103 4.97492 5.80174 4.81923 5.84963L4.05286 6.08501C3.94679 6.11769 3.94564 6.26707 4.05114 6.30119L4.81407 6.54803C4.96889 6.59821 5.0896 6.72092 5.13747 6.8766L5.37286 7.64268C5.40526 7.74876 5.55492 7.74991 5.58904 7.6444Z"
        fill="#FAFAFA" />
    <path fill-rule="evenodd" clip-rule="evenodd"
        d="M17.7021 7.20055C17.3861 6.84726 16.8931 6.64835 16.4137 6.56678C15.9306 6.48844 15.4239 6.49571 14.9469 6.58045C13.9817 6.74372 13.1049 7.14336 12.3401 7.63639C11.9429 7.87835 11.6042 8.15833 11.2534 8.44346C11.0843 8.58767 10.9301 8.74124 10.7696 8.8926L10.331 9.32903C9.85437 9.82722 9.38459 10.281 8.93006 10.6571C8.47369 11.0315 8.04702 11.3158 7.62654 11.5144C7.20633 11.714 6.75669 11.8314 6.17063 11.8502C5.58972 11.8707 4.90243 11.7658 4.16726 11.5928C3.42815 11.4205 2.652 11.1749 1.78467 10.9636C2.0873 11.8031 2.54302 12.5451 3.12812 13.2233C3.72009 13.8898 4.45926 14.4971 5.40885 14.8966C6.34471 15.305 7.52078 15.4516 8.62045 15.2304C9.72304 15.0181 10.6906 14.508 11.4727 13.9179C12.2568 13.3218 12.8912 12.6428 13.426 11.9369C13.5736 11.7418 13.6517 11.6327 13.7585 11.4803L14.0539 11.0428C14.259 10.7723 14.4459 10.4642 14.6489 10.1962C15.0471 9.63476 15.4398 9.07398 15.896 8.55735C16.1256 8.29531 16.3678 8.04467 16.6536 7.80379C16.7961 7.68622 16.9502 7.57116 17.1208 7.46752C17.294 7.35572 17.4769 7.26821 17.7021 7.20055Z"
        fill="url(#paint1_linear_153_36118)" />
    <path fill-rule="evenodd" clip-rule="evenodd"
        d="M17.7021 7.2007C17.3627 6.34424 16.7317 5.62331 15.8847 5.09132C15.043 4.56517 13.8739 4.29666 12.7153 4.52555C12.1429 4.63624 11.5884 4.84936 11.1018 5.13316C10.6174 5.41583 10.1833 5.75611 9.80756 6.12116C9.61996 6.3043 9.44968 6.49533 9.28052 6.68746L8.84206 7.24646L8.16486 8.14632C7.30153 9.30409 6.37185 10.6609 4.84617 11.063C3.34842 11.4577 2.69881 11.1081 1.78467 10.9637C1.95182 11.3952 2.15886 11.8143 2.43954 12.183C2.715 12.5591 3.04036 12.9124 3.44487 13.2153C3.64929 13.3607 3.86511 13.5043 4.10481 13.626C4.34343 13.7436 4.60074 13.8472 4.8754 13.925C5.42173 14.0748 6.03681 14.1273 6.63234 14.0467C7.22815 13.9672 7.79764 13.7784 8.29544 13.5277C8.79691 13.2792 9.23375 12.9767 9.62381 12.6574C10.3992 12.0135 11.0023 11.3021 11.5118 10.5829C11.768 10.2233 12.0006 9.85695 12.2157 9.4905L12.4689 9.05422C12.5464 8.92669 12.6246 8.79837 12.7041 8.67888C13.025 8.19875 13.3388 7.81378 13.7199 7.52481C14.0958 7.22838 14.6192 7.00937 15.3185 6.9585C16.015 6.907 16.819 7.00212 17.7021 7.2007Z"
        fill="#FAFAFA" />
    <path fill-rule="evenodd" clip-rule="evenodd"
        d="M13.9341 14.3165C13.9341 14.9456 14.4443 15.4557 15.0733 15.4557C15.7024 15.4557 16.2119 14.9456 16.2119 14.3165C16.2119 13.6875 15.7024 13.1772 15.0733 13.1772C14.4443 13.1772 13.9341 13.6875 13.9341 14.3165Z"
        fill="url(#paint2_linear_153_36118)" />
    <defs>
        <linearGradient id="paint0_linear_153_36118" x1="18.9238" y1="5.12684" x2="0.772965" y2="8.4948"
            gradientUnits="userSpaceOnUse">
            <stop stop-color="#EC796B" />
            <stop offset="1" stop-color="#E175B1" />
        </linearGradient>
        <linearGradient id="paint1_linear_153_36118" x1="17.617" y1="6.90005" x2="3.6074" y2="14.6842"
            gradientUnits="userSpaceOnUse">
            <stop stop-color="#EC796B" />
            <stop offset="1" stop-color="#E175B1" />
        </linearGradient>
        <linearGradient id="paint2_linear_153_36118" x1="16.2112" y1="13.5174" x2="13.9326" y2="13.7584"
            gradientUnits="userSpaceOnUse">
            <stop stop-color="#EC796B" />
            <stop offset="1" stop-color="#E175B1" />
        </linearGradient>
    </defs>
</svg>