<svg width="60" height="60" viewBox="0 0 60 60" fill="none" xmlns="http://www.w3.org/2000/svg">
<circle cx="30" cy="30" r="30" fill="#D9D9D9"/>
<path d="M48.9196 12.5907L47.2734 14.2369C51.2041 18.536 53.3839 24.1504 53.3839 29.9756C53.3839 35.8008 51.2041 41.4151 47.2734 45.7143L48.9196 47.3604C53.2891 42.6186 55.7149 36.4066 55.7149 29.9585C55.7149 23.5105 53.2891 17.2984 48.9196 12.5566V12.5907Z" fill="#5A5564"/>
<path d="M14.2732 12.7342C18.5721 8.80299 24.1866 6.62293 30.0119 6.62293C35.8373 6.62293 41.4517 8.80299 45.7506 12.7342L47.3967 11.0881C42.6547 6.71625 36.4411 4.28906 29.9913 4.28906C23.5416 4.28906 17.328 6.71625 12.5859 11.0881L14.2732 12.7342Z" fill="#5A5564"/>
<path d="M12.7342 45.7399C8.80739 41.4421 6.63003 35.831 6.63003 30.0094C6.63003 24.1878 8.80739 18.5767 12.7342 14.2789L11.0881 12.6328C6.71625 17.3748 4.28906 23.5884 4.28906 30.0382C4.28906 36.488 6.71625 42.7016 11.0881 47.4436L12.7342 45.7399Z" fill="#5A5564"/>
<path d="M45.7329 47.2529C41.434 51.1841 35.8195 53.3642 29.9942 53.3642C24.1688 53.3642 18.5544 51.1841 14.2555 47.2529L12.6094 48.8991C17.3514 53.2709 23.565 55.6981 30.0148 55.6981C36.4646 55.6981 42.6781 53.2709 47.4202 48.8991L45.7329 47.2529Z" fill="#5A5564"/>
<path d="M40.4026 24.5028C40.0734 21.066 37.1104 19.9172 33.3572 19.5645V14.8271H30.4553V19.4727H28.1402V14.8271H25.263V19.5938H19.384V22.6933C19.384 22.6933 21.5251 22.6545 21.4922 22.6933C21.8781 22.6511 22.2652 22.7603 22.5722 22.9978C22.8792 23.2353 23.0822 23.5826 23.1383 23.9667V37.0181C23.1202 37.2912 22.9943 37.546 22.7884 37.7264C22.5824 37.9067 22.3133 37.9979 22.0401 37.9799C22.0789 38.0128 19.9319 37.9799 19.9319 37.9799L19.3828 41.445H25.2089V46.2881H28.1037V41.5155H30.4212V46.2657H33.3266V41.4779C38.225 41.1804 41.6407 39.9728 42.0687 35.3872C42.4144 31.6976 40.6789 30.0491 37.9064 29.3906C39.596 28.5558 40.639 27.0179 40.4026 24.5028ZM36.3343 34.8158C36.3343 38.4184 30.1626 38.0069 28.1966 38.0069V31.6152C30.1673 31.62 36.3343 31.0544 36.3343 34.8158ZM34.9939 25.8103C34.9939 29.1026 29.8427 28.704 28.206 28.704V22.8943C29.8427 22.8943 34.9939 22.3781 34.9939 25.8103Z" fill="#F09242"/>
<path d="M29.9947 60C13.4265 59.9965 0 46.5618 0 29.9947C0 13.4277 13.4371 0 30.0053 0C46.5735 0 59.9965 13.43 60 29.9947C60.0035 46.5594 46.5735 59.9965 30.0053 60H29.9947ZM29.9947 2.33985C14.7269 2.3516 2.36336 14.7375 2.37277 30.0053C2.38217 45.2731 14.7704 57.6366 30.0382 57.6272C45.306 57.6178 57.6543 45.2484 57.6602 29.9959C57.666 14.7434 45.2942 2.3516 30.0276 2.33985H29.9947Z" fill="#282138"/>
</svg>
